<?xml version="1.0" encoding="us-ascii" standalone="no"?><svg xmlns="http://www.w3.org/2000/svg" xmlns:xlink="http://www.w3.org/1999/xlink" contentStyleType="text/css" height="950px" preserveAspectRatio="none" style="width:3227px;height:950px;background:#FFFFFF;" version="1.1" viewBox="0 0 3227 950" width="3227px" zoomAndPan="magnify"><defs/><g><!--cluster pt--><g id="cluster_pt"><path d="M8.5,6 L21.5,6 A3.75,3.75 0 0 1 24,8.5 L31,26.9819 L3217.5,26.9819 A2.5,2.5 0 0 1 3220,29.4819 L3220,940.94 A2.5,2.5 0 0 1 3217.5,943.44 L8.5,943.44 A2.5,2.5 0 0 1 6,940.94 L6,8.5 A2.5,2.5 0 0 1 8.5,6 " fill="none" style="stroke:#000000;stroke-width:1.5;"/><line style="stroke:#000000;stroke-width:1.5;" x1="6" x2="31" y1="26.9819" y2="26.9819"/><text fill="#000000" font-family="sans-serif" font-size="11" font-weight="bold" lengthAdjust="spacing" textLength="12" x="10" y="19.7589">pt</text></g><!--cluster isep--><g id="cluster_isep"><path d="M32.5,47 L56.5,47 A3.75,3.75 0 0 1 59,49.5 L66,67.9819 L3193.5,67.9819 A2.5,2.5 0 0 1 3196,70.4819 L3196,916.94 A2.5,2.5 0 0 1 3193.5,919.44 L32.5,919.44 A2.5,2.5 0 0 1 30,916.94 L30,49.5 A2.5,2.5 0 0 1 32.5,47 " fill="none" style="stroke:#000000;stroke-width:1.5;"/><line style="stroke:#000000;stroke-width:1.5;" x1="30" x2="66" y1="67.9819" y2="67.9819"/><text fill="#000000" font-family="sans-serif" font-size="11" font-weight="bold" lengthAdjust="spacing" textLength="23" x="34" y="60.7589">isep</text></g><!--cluster dssmv--><g id="cluster_dssmv"><path d="M56.5,88 L93.5,88 A3.75,3.75 0 0 1 96,90.5 L103,108.9819 L3169.5,108.9819 A2.5,2.5 0 0 1 3172,111.4819 L3172,892.94 A2.5,2.5 0 0 1 3169.5,895.44 L56.5,895.44 A2.5,2.5 0 0 1 54,892.94 L54,90.5 A2.5,2.5 0 0 1 56.5,88 " fill="none" style="stroke:#000000;stroke-width:1.5;"/><line style="stroke:#000000;stroke-width:1.5;" x1="54" x2="103" y1="108.9819" y2="108.9819"/><text fill="#000000" font-family="sans-serif" font-size="11" font-weight="bold" lengthAdjust="spacing" textLength="36" x="58" y="101.7589">dssmv</text></g><!--cluster projectdroid--><g id="cluster_projectdroid"><path d="M80.5,129 L150.5,129 A3.75,3.75 0 0 1 153,131.5 L160,149.9819 L3145.5,149.9819 A2.5,2.5 0 0 1 3148,152.4819 L3148,868.94 A2.5,2.5 0 0 1 3145.5,871.44 L80.5,871.44 A2.5,2.5 0 0 1 78,868.94 L78,131.5 A2.5,2.5 0 0 1 80.5,129 " fill="none" style="stroke:#000000;stroke-width:1.5;"/><line style="stroke:#000000;stroke-width:1.5;" x1="78" x2="160" y1="149.9819" y2="149.9819"/><text fill="#000000" font-family="sans-serif" font-size="11" font-weight="bold" lengthAdjust="spacing" textLength="69" x="82" y="142.7589">projectdroid</text></g><!--cluster exceptions--><g id="cluster_exceptions"><path d="M104.5,334.8 L166.5,334.8 A3.75,3.75 0 0 1 169,337.3 L176,355.7819 L617.5,355.7819 A2.5,2.5 0 0 1 620,358.2819 L620,790.99 A2.5,2.5 0 0 1 617.5,793.49 L104.5,793.49 A2.5,2.5 0 0 1 102,790.99 L102,337.3 A2.5,2.5 0 0 1 104.5,334.8 " fill="none" style="stroke:#000000;stroke-width:1.5;"/><line style="stroke:#000000;stroke-width:1.5;" x1="102" x2="176" y1="355.7819" y2="355.7819"/><text fill="#000000" font-family="sans-serif" font-size="11" font-weight="bold" lengthAdjust="spacing" textLength="61" x="106" y="348.5589">exceptions</text></g><!--cluster model--><g id="cluster_model"><path d="M646.5,170 L682.5,170 A3.75,3.75 0 0 1 685,172.5 L692,190.9819 L3121.5,190.9819 A2.5,2.5 0 0 1 3124,193.4819 L3124,844.94 A2.5,2.5 0 0 1 3121.5,847.44 L646.5,847.44 A2.5,2.5 0 0 1 644,844.94 L644,172.5 A2.5,2.5 0 0 1 646.5,170 " fill="none" style="stroke:#000000;stroke-width:1.5;"/><line style="stroke:#000000;stroke-width:1.5;" x1="644" x2="692" y1="190.9819" y2="190.9819"/><text fill="#000000" font-family="sans-serif" font-size="11" font-weight="bold" lengthAdjust="spacing" textLength="35" x="648" y="183.7589">model</text></g><!--class InvalidDataException--><g id="elem_InvalidDataException"><rect codeLine="9" fill="#F1F1F1" height="70.9457" id="InvalidDataException" rx="2.5" ry="2.5" style="stroke:#181818;stroke-width:0.5;" width="221" x="383.5" y="706.55"/><ellipse cx="434.75" cy="726.5319" fill="#ADD1B2" rx="9" ry="9" style="stroke:#181818;stroke-width:1.0;"/><path d="M434.6094,730.6413 Q433.4844,730.6413 432.75,730.1725 Q432.0156,729.6881 431.6563,728.8131 Q431.2969,727.9381 431.2969,726.7663 Q431.2969,725.4538 431.7188,724.5163 Q432.1406,723.5788 432.9688,723.0788 Q433.8125,722.5631 435.0156,722.5631 Q435.5938,722.5631 436.0156,722.6881 Q436.4531,722.7975 436.9063,723.0163 L436.375,724.3288 Q435.9688,724.1256 435.625,724.0475 Q435.2813,723.9694 434.9688,723.9694 Q434.2031,723.9694 433.75,724.3131 Q433.2969,724.6413 433.1094,725.2663 Q432.9219,725.8756 432.9219,726.7038 Q432.9219,728.0006 433.375,728.6256 Q433.8438,729.2506 434.875,729.2506 Q435.2656,729.2506 435.6563,729.1569 Q436.0625,729.0475 436.6094,728.7975 L436.6094,730.235 Q436.125,730.4381 435.6094,730.5319 Q435.1094,730.6413 434.6094,730.6413 Z " fill="#000000"/><text fill="#000000" font-family="Helvetica, Arial, sans-serif" font-size="11" font-style="italic" lengthAdjust="spacing" textLength="95" x="460.25" y="723.3089">&#171;checked exception&#187;</text><text fill="#000000" font-family="sans-serif" font-size="11" lengthAdjust="spacing" textLength="111" x="452.25" y="738.2908">InvalidDataException</text><line style="stroke:#181818;stroke-width:0.5;" x1="384.5" x2="603.5" y1="746.5138" y2="746.5138"/><line style="stroke:#181818;stroke-width:0.5;" x1="384.5" x2="603.5" y1="754.5138" y2="754.5138"/><text fill="#000000" font-family="sans-serif" font-size="11" lengthAdjust="spacing" textLength="209" x="389.5" y="770.2727">+InvalidDataException(message : String)</text></g><!--class InvalidRatingException--><g id="elem_InvalidRatingException"><rect codeLine="13" fill="#F1F1F1" height="70.9457" id="InvalidRatingException" rx="2.5" ry="2.5" style="stroke:#181818;stroke-width:0.5;" width="231" x="117.5" y="706.55"/><ellipse cx="168.75" cy="726.5319" fill="#ADD1B2" rx="9" ry="9" style="stroke:#181818;stroke-width:1.0;"/><path d="M168.6094,730.6413 Q167.4844,730.6413 166.75,730.1725 Q166.0156,729.6881 165.6563,728.8131 Q165.2969,727.9381 165.2969,726.7663 Q165.2969,725.4538 165.7188,724.5163 Q166.1406,723.5788 166.9688,723.0788 Q167.8125,722.5631 169.0156,722.5631 Q169.5938,722.5631 170.0156,722.6881 Q170.4531,722.7975 170.9063,723.0163 L170.375,724.3288 Q169.9688,724.1256 169.625,724.0475 Q169.2813,723.9694 168.9688,723.9694 Q168.2031,723.9694 167.75,724.3131 Q167.2969,724.6413 167.1094,725.2663 Q166.9219,725.8756 166.9219,726.7038 Q166.9219,728.0006 167.375,728.6256 Q167.8438,729.2506 168.875,729.2506 Q169.2656,729.2506 169.6563,729.1569 Q170.0625,729.0475 170.6094,728.7975 L170.6094,730.235 Q170.125,730.4381 169.6094,730.5319 Q169.1094,730.6413 168.6094,730.6413 Z " fill="#000000"/><text fill="#000000" font-family="Helvetica, Arial, sans-serif" font-size="11" font-style="italic" lengthAdjust="spacing" textLength="95" x="199.25" y="723.3089">&#171;checked exception&#187;</text><text fill="#000000" font-family="sans-serif" font-size="11" lengthAdjust="spacing" textLength="121" x="186.25" y="738.2908">InvalidRatingException</text><line style="stroke:#181818;stroke-width:0.5;" x1="118.5" x2="347.5" y1="746.5138" y2="746.5138"/><line style="stroke:#181818;stroke-width:0.5;" x1="118.5" x2="347.5" y1="754.5138" y2="754.5138"/><text fill="#000000" font-family="sans-serif" font-size="11" lengthAdjust="spacing" textLength="219" x="123.5" y="770.2727">+InvalidRatingException(message : String)</text></g><!--class Exception--><g id="elem_Exception"><rect fill="#F1F1F1" height="44" id="Exception" rx="2.5" ry="2.5" style="stroke:#181818;stroke-width:0.5;" width="79" x="305.5" y="367.8"/><ellipse cx="318.5" cy="381.8" fill="#ADD1B2" rx="9" ry="9" style="stroke:#181818;stroke-width:1.0;"/><path d="M318.3594,385.9094 Q317.2344,385.9094 316.5,385.4406 Q315.7656,384.9563 315.4063,384.0813 Q315.0469,383.2063 315.0469,382.0344 Q315.0469,380.7219 315.4688,379.7844 Q315.8906,378.8469 316.7188,378.3469 Q317.5625,377.8313 318.7656,377.8313 Q319.3438,377.8313 319.7656,377.9563 Q320.2031,378.0656 320.6563,378.2844 L320.125,379.5969 Q319.7188,379.3938 319.375,379.3156 Q319.0313,379.2375 318.7188,379.2375 Q317.9531,379.2375 317.5,379.5813 Q317.0469,379.9094 316.8594,380.5344 Q316.6719,381.1438 316.6719,381.9719 Q316.6719,383.2688 317.125,383.8938 Q317.5938,384.5188 318.625,384.5188 Q319.0156,384.5188 319.4063,384.425 Q319.8125,384.3156 320.3594,384.0656 L320.3594,385.5031 Q319.875,385.7063 319.3594,385.8 Q318.8594,385.9094 318.3594,385.9094 Z " fill="#000000"/><text fill="#000000" font-family="sans-serif" font-size="11" lengthAdjust="spacing" textLength="51" x="330.5" y="386.068">Exception</text><line style="stroke:#181818;stroke-width:0.5;" x1="306.5" x2="383.5" y1="395.8" y2="395.8"/><line style="stroke:#181818;stroke-width:0.5;" x1="306.5" x2="383.5" y1="403.8" y2="403.8"/></g><!--class WatchStatus--><g id="elem_WatchStatus"><rect codeLine="23" fill="#F1F1F1" height="103.9276" id="WatchStatus" rx="2.5" ry="2.5" style="stroke:#181818;stroke-width:0.5;" width="103" x="1971.5" y="690.06"/><ellipse cx="1989.45" cy="704.06" fill="#EB937F" rx="9" ry="9" style="stroke:#181818;stroke-width:1.0;"/><path d="M1986.825,708.06 L1986.825,700.2006 L1991.7781,700.2006 L1991.7781,701.5756 L1988.3719,701.5756 L1988.3719,703.2944 L1991.6219,703.2944 L1991.6219,704.6694 L1988.3719,704.6694 L1988.3719,706.685 L1991.7781,706.685 L1991.7781,708.06 L1986.825,708.06 Z " fill="#000000"/><text fill="#000000" font-family="sans-serif" font-size="11" lengthAdjust="spacing" textLength="64" x="2002.55" y="708.328">WatchStatus</text><line style="stroke:#181818;stroke-width:0.5;" x1="1972.5" x2="2073.5" y1="718.06" y2="718.06"/><text fill="#000000" font-family="sans-serif" font-size="11" lengthAdjust="spacing" textLength="91" x="1977.5" y="733.8189">PLAN_TO_WATCH</text><text fill="#000000" font-family="sans-serif" font-size="11" lengthAdjust="spacing" textLength="58" x="1977.5" y="748.8008">WATCHING</text><text fill="#000000" font-family="sans-serif" font-size="11" lengthAdjust="spacing" textLength="52" x="1977.5" y="763.7827">WATCHED</text><text fill="#000000" font-family="sans-serif" font-size="11" lengthAdjust="spacing" textLength="52" x="1977.5" y="778.7646">FAVORITE</text><line style="stroke:#181818;stroke-width:0.5;" x1="1972.5" x2="2073.5" y1="785.9876" y2="785.9876"/></g><!--class User--><g id="elem_User"><rect codeLine="30" fill="#F1F1F1" height="268.7283" id="User" rx="2.5" ry="2.5" style="stroke:#181818;stroke-width:0.5;" width="399" x="1089.5" y="255.44"/><ellipse cx="1273.25" cy="269.44" fill="#ADD1B2" rx="9" ry="9" style="stroke:#181818;stroke-width:1.0;"/><path d="M1273.1094,273.5494 Q1271.9844,273.5494 1271.25,273.0806 Q1270.5156,272.5963 1270.1563,271.7213 Q1269.7969,270.8463 1269.7969,269.6744 Q1269.7969,268.3619 1270.2188,267.4244 Q1270.6406,266.4869 1271.4688,265.9869 Q1272.3125,265.4713 1273.5156,265.4713 Q1274.0938,265.4713 1274.5156,265.5963 Q1274.9531,265.7056 1275.4063,265.9244 L1274.875,267.2369 Q1274.4688,267.0338 1274.125,266.9556 Q1273.7813,266.8775 1273.4688,266.8775 Q1272.7031,266.8775 1272.25,267.2213 Q1271.7969,267.5494 1271.6094,268.1744 Q1271.4219,268.7838 1271.4219,269.6119 Q1271.4219,270.9088 1271.875,271.5338 Q1272.3438,272.1588 1273.375,272.1588 Q1273.7656,272.1588 1274.1563,272.065 Q1274.5625,271.9556 1275.1094,271.7056 L1275.1094,273.1431 Q1274.625,273.3463 1274.1094,273.44 Q1273.6094,273.5494 1273.1094,273.5494 Z " fill="#000000"/><text fill="#000000" font-family="sans-serif" font-size="11" lengthAdjust="spacing" textLength="24" x="1290.75" y="273.708">User</text><line style="stroke:#181818;stroke-width:0.5;" x1="1090.5" x2="1487.5" y1="283.44" y2="283.44"/><text fill="#000000" font-family="sans-serif" font-size="11" lengthAdjust="spacing" textLength="79" x="1095.5" y="299.1989">-userId : String</text><text fill="#000000" font-family="sans-serif" font-size="11" lengthAdjust="spacing" textLength="74" x="1095.5" y="314.1808">-name : String</text><text fill="#000000" font-family="sans-serif" font-size="11" lengthAdjust="spacing" textLength="73" x="1095.5" y="329.1627">-email : String</text><text fill="#000000" font-family="sans-serif" font-size="11" lengthAdjust="spacing" textLength="123" x="1095.5" y="344.1446">-registrationDate : Date</text><line style="stroke:#181818;stroke-width:0.5;" x1="1090.5" x2="1487.5" y1="351.3676" y2="351.3676"/><text fill="#000000" font-family="sans-serif" font-size="11" lengthAdjust="spacing" textLength="262" x="1095.5" y="367.1265">+User(userId : String, name : String, email : String)</text><text fill="#000000" font-family="sans-serif" font-size="11" lengthAdjust="spacing" textLength="387" x="1095.5" y="382.1084">+User(userId : String, name : String, email : String, registrationDate : Date)</text><text fill="#000000" font-family="sans-serif" font-size="11" lengthAdjust="spacing" textLength="105" x="1095.5" y="397.0902">+getUserId() : String</text><text fill="#000000" font-family="sans-serif" font-size="11" lengthAdjust="spacing" textLength="100" x="1095.5" y="412.0721">+getName() : String</text><text fill="#000000" font-family="sans-serif" font-size="11" lengthAdjust="spacing" textLength="159" x="1095.5" y="427.054">+setName(name : String) : void</text><text fill="#000000" font-family="sans-serif" font-size="11" lengthAdjust="spacing" textLength="98" x="1095.5" y="442.0359">+getEmail() : String</text><text fill="#000000" font-family="sans-serif" font-size="11" lengthAdjust="spacing" textLength="156" x="1095.5" y="457.0178">+setEmail(email : String) : void</text><text fill="#000000" font-family="sans-serif" font-size="11" lengthAdjust="spacing" textLength="150" x="1095.5" y="471.9997">+getRegistrationDate() : Date</text><text fill="#000000" font-family="sans-serif" font-size="11" lengthAdjust="spacing" textLength="96" x="1095.5" y="486.9816">+toString() : String</text><text fill="#000000" font-family="sans-serif" font-size="11" lengthAdjust="spacing" textLength="148" x="1095.5" y="501.9635">+equals(o : Object) : boolean</text><text fill="#000000" font-family="sans-serif" font-size="11" lengthAdjust="spacing" textLength="87" x="1095.5" y="516.9453">+hashCode() : int</text></g><!--class MovieList--><g id="elem_MovieList"><rect codeLine="48" fill="#F1F1F1" height="223.7827" id="MovieList" rx="2.5" ry="2.5" style="stroke:#181818;stroke-width:0.5;" width="306" x="1524" y="277.91"/><ellipse cx="1648.25" cy="291.91" fill="#ADD1B2" rx="9" ry="9" style="stroke:#181818;stroke-width:1.0;"/><path d="M1648.1094,296.0194 Q1646.9844,296.0194 1646.25,295.5506 Q1645.5156,295.0663 1645.1563,294.1913 Q1644.7969,293.3163 1644.7969,292.1444 Q1644.7969,290.8319 1645.2188,289.8944 Q1645.6406,288.9569 1646.4688,288.4569 Q1647.3125,287.9413 1648.5156,287.9413 Q1649.0938,287.9413 1649.5156,288.0663 Q1649.9531,288.1756 1650.4063,288.3944 L1649.875,289.7069 Q1649.4688,289.5038 1649.125,289.4256 Q1648.7813,289.3475 1648.4688,289.3475 Q1647.7031,289.3475 1647.25,289.6913 Q1646.7969,290.0194 1646.6094,290.6444 Q1646.4219,291.2538 1646.4219,292.0819 Q1646.4219,293.3788 1646.875,294.0038 Q1647.3438,294.6288 1648.375,294.6288 Q1648.7656,294.6288 1649.1563,294.535 Q1649.5625,294.4256 1650.1094,294.1756 L1650.1094,295.6131 Q1649.625,295.8163 1649.1094,295.91 Q1648.6094,296.0194 1648.1094,296.0194 Z " fill="#000000"/><text fill="#000000" font-family="sans-serif" font-size="11" lengthAdjust="spacing" textLength="50" x="1665.75" y="296.178">MovieList</text><line style="stroke:#181818;stroke-width:0.5;" x1="1525" x2="1829" y1="305.91" y2="305.91"/><text fill="#000000" font-family="sans-serif" font-size="11" lengthAdjust="spacing" textLength="71" x="1530" y="321.6689">-listId : String</text><text fill="#000000" font-family="sans-serif" font-size="11" lengthAdjust="spacing" textLength="74" x="1530" y="336.6508">-name : String</text><text fill="#000000" font-family="sans-serif" font-size="11" lengthAdjust="spacing" textLength="87" x="1530" y="351.6327">-createdAt : Date</text><line style="stroke:#181818;stroke-width:0.5;" x1="1525" x2="1829" y1="358.8557" y2="358.8557"/><text fill="#000000" font-family="sans-serif" font-size="11" lengthAdjust="spacing" textLength="205" x="1530" y="374.6146">+MovieList(listId : String, name : String)</text><text fill="#000000" font-family="sans-serif" font-size="11" lengthAdjust="spacing" textLength="294" x="1530" y="389.5965">+MovieList(listId : String, name : String, createdAt : Date)</text><text fill="#000000" font-family="sans-serif" font-size="11" lengthAdjust="spacing" textLength="99" x="1530" y="404.5784">+getListId() : String</text><text fill="#000000" font-family="sans-serif" font-size="11" lengthAdjust="spacing" textLength="100" x="1530" y="419.5602">+getName() : String</text><text fill="#000000" font-family="sans-serif" font-size="11" lengthAdjust="spacing" textLength="159" x="1530" y="434.5421">+setName(name : String) : void</text><text fill="#000000" font-family="sans-serif" font-size="11" lengthAdjust="spacing" textLength="114" x="1530" y="449.524">+getCreatedAt() : Date</text><text fill="#000000" font-family="sans-serif" font-size="11" lengthAdjust="spacing" textLength="96" x="1530" y="464.5059">+toString() : String</text><text fill="#000000" font-family="sans-serif" font-size="11" lengthAdjust="spacing" textLength="148" x="1530" y="479.4878">+equals(o : Object) : boolean</text><text fill="#000000" font-family="sans-serif" font-size="11" lengthAdjust="spacing" textLength="87" x="1530" y="494.4697">+hashCode() : int</text></g><!--class SavedMovie--><g id="elem_SavedMovie"><rect codeLine="63" fill="#F1F1F1" height="373.6015" id="SavedMovie" rx="2.5" ry="2.5" style="stroke:#181818;stroke-width:0.5;" width="315" x="1865.5" y="203"/><ellipse cx="1987.75" cy="217" fill="#ADD1B2" rx="9" ry="9" style="stroke:#181818;stroke-width:1.0;"/><path d="M1987.6094,221.1094 Q1986.4844,221.1094 1985.75,220.6406 Q1985.0156,220.1563 1984.6563,219.2813 Q1984.2969,218.4063 1984.2969,217.2344 Q1984.2969,215.9219 1984.7188,214.9844 Q1985.1406,214.0469 1985.9688,213.5469 Q1986.8125,213.0313 1988.0156,213.0313 Q1988.5938,213.0313 1989.0156,213.1563 Q1989.4531,213.2656 1989.9063,213.4844 L1989.375,214.7969 Q1988.9688,214.5938 1988.625,214.5156 Q1988.2813,214.4375 1987.9688,214.4375 Q1987.2031,214.4375 1986.75,214.7813 Q1986.2969,215.1094 1986.1094,215.7344 Q1985.9219,216.3438 1985.9219,217.1719 Q1985.9219,218.4688 1986.375,219.0938 Q1986.8438,219.7188 1987.875,219.7188 Q1988.2656,219.7188 1988.6563,219.625 Q1989.0625,219.5156 1989.6094,219.2656 L1989.6094,220.7031 Q1989.125,220.9063 1988.6094,221 Q1988.1094,221.1094 1987.6094,221.1094 Z " fill="#000000"/><text fill="#000000" font-family="sans-serif" font-size="11" lengthAdjust="spacing" textLength="63" x="2005.25" y="221.268">SavedMovie</text><line style="stroke:#181818;stroke-width:0.5;" x1="1866.5" x2="2179.5" y1="231" y2="231"/><text fill="#000000" font-family="sans-serif" font-size="11" lengthAdjust="spacing" textLength="97" x="1871.5" y="246.7589">-internalId : String</text><text fill="#000000" font-family="sans-serif" font-size="11" lengthAdjust="spacing" textLength="66" x="1871.5" y="261.7408">-tmdbId : int</text><text fill="#000000" font-family="sans-serif" font-size="11" lengthAdjust="spacing" textLength="65" x="1871.5" y="276.7227">-title : String</text><text fill="#000000" font-family="sans-serif" font-size="11" lengthAdjust="spacing" textLength="103" x="1871.5" y="291.7046">-posterPath : String</text><text fill="#000000" font-family="sans-serif" font-size="11" lengthAdjust="spacing" textLength="87" x="1871.5" y="306.6865">-releaseYear : int</text><text fill="#000000" font-family="sans-serif" font-size="11" lengthAdjust="spacing" textLength="93" x="1871.5" y="321.6684">-overview : String</text><text fill="#000000" font-family="sans-serif" font-size="11" lengthAdjust="spacing" textLength="108" x="1871.5" y="336.6502">-status : WatchStatus</text><line style="stroke:#181818;stroke-width:0.5;" x1="1866.5" x2="2179.5" y1="343.8732" y2="343.8732"/><text fill="#000000" font-family="sans-serif" font-size="11" lengthAdjust="spacing" textLength="303" x="1871.5" y="359.6321">+SavedMovie(internalId : String, tmdbId : int, title : String)</text><text fill="#000000" font-family="sans-serif" font-size="11" lengthAdjust="spacing" textLength="123" x="1871.5" y="374.614">+getInternalId() : String</text><text fill="#000000" font-family="sans-serif" font-size="11" lengthAdjust="spacing" textLength="93" x="1871.5" y="389.5959">+getTmdbId() : int</text><text fill="#000000" font-family="sans-serif" font-size="11" lengthAdjust="spacing" textLength="92" x="1871.5" y="404.5778">+getTitle() : String</text><text fill="#000000" font-family="sans-serif" font-size="11" lengthAdjust="spacing" textLength="128" x="1871.5" y="419.5597">+getPosterPath() : String</text><text fill="#000000" font-family="sans-serif" font-size="11" lengthAdjust="spacing" textLength="216" x="1871.5" y="434.5416">+setPosterPath(posterPath : String) : void</text><text fill="#000000" font-family="sans-serif" font-size="11" lengthAdjust="spacing" textLength="114" x="1871.5" y="449.5235">+getReleaseYear() : int</text><text fill="#000000" font-family="sans-serif" font-size="11" lengthAdjust="spacing" textLength="204" x="1871.5" y="464.5053">+setReleaseYear(releaseYear : int) : void</text><text fill="#000000" font-family="sans-serif" font-size="11" lengthAdjust="spacing" textLength="120" x="1871.5" y="479.4872">+getOverview() : String</text><text fill="#000000" font-family="sans-serif" font-size="11" lengthAdjust="spacing" textLength="198" x="1871.5" y="494.4691">+setOverview(overview : String) : void</text><text fill="#000000" font-family="sans-serif" font-size="11" lengthAdjust="spacing" textLength="134" x="1871.5" y="509.451">+getStatus() : WatchStatus</text><text fill="#000000" font-family="sans-serif" font-size="11" lengthAdjust="spacing" textLength="195" x="1871.5" y="524.4329">+setStatus(status : WatchStatus) : void</text><text fill="#000000" font-family="sans-serif" font-size="11" lengthAdjust="spacing" textLength="96" x="1871.5" y="539.4148">+toString() : String</text><text fill="#000000" font-family="sans-serif" font-size="11" lengthAdjust="spacing" textLength="148" x="1871.5" y="554.3967">+equals(o : Object) : boolean</text><text fill="#000000" font-family="sans-serif" font-size="11" lengthAdjust="spacing" textLength="87" x="1871.5" y="569.3786">+hashCode() : int</text></g><!--class Rating--><g id="elem_Rating"><rect codeLine="88" fill="#F1F1F1" height="268.7283" id="Rating" rx="2.5" ry="2.5" style="stroke:#181818;stroke-width:0.5;" width="394" x="660" y="255.44"/><ellipse cx="836.25" cy="269.44" fill="#ADD1B2" rx="9" ry="9" style="stroke:#181818;stroke-width:1.0;"/><path d="M836.1094,273.5494 Q834.9844,273.5494 834.25,273.0806 Q833.5156,272.5963 833.1563,271.7213 Q832.7969,270.8463 832.7969,269.6744 Q832.7969,268.3619 833.2188,267.4244 Q833.6406,266.4869 834.4688,265.9869 Q835.3125,265.4713 836.5156,265.4713 Q837.0938,265.4713 837.5156,265.5963 Q837.9531,265.7056 838.4063,265.9244 L837.875,267.2369 Q837.4688,267.0338 837.125,266.9556 Q836.7813,266.8775 836.4688,266.8775 Q835.7031,266.8775 835.25,267.2213 Q834.7969,267.5494 834.6094,268.1744 Q834.4219,268.7838 834.4219,269.6119 Q834.4219,270.9088 834.875,271.5338 Q835.3438,272.1588 836.375,272.1588 Q836.7656,272.1588 837.1563,272.065 Q837.5625,271.9556 838.1094,271.7056 L838.1094,273.1431 Q837.625,273.3463 837.1094,273.44 Q836.6094,273.5494 836.1094,273.5494 Z " fill="#000000"/><text fill="#000000" font-family="sans-serif" font-size="11" lengthAdjust="spacing" textLength="34" x="853.75" y="273.708">Rating</text><line style="stroke:#181818;stroke-width:0.5;" x1="661" x2="1053" y1="283.44" y2="283.44"/><text fill="#000000" font-family="sans-serif" font-size="11" lengthAdjust="spacing" textLength="88" x="666" y="299.1989">-ratingId : String</text><text fill="#000000" font-family="sans-serif" font-size="11" lengthAdjust="spacing" textLength="65" x="666" y="314.1808">-score : float</text><text fill="#000000" font-family="sans-serif" font-size="11" lengthAdjust="spacing" textLength="94" x="666" y="329.1627">-comment : String</text><text fill="#000000" font-family="sans-serif" font-size="11" lengthAdjust="spacing" textLength="87" x="666" y="344.1446">-createdAt : Date</text><line style="stroke:#181818;stroke-width:0.5;" x1="661" x2="1053" y1="351.3676" y2="351.3676"/><text fill="#000000" font-family="sans-serif" font-size="11" lengthAdjust="spacing" textLength="293" x="666" y="367.1265">+Rating(ratingId : String, score : float, comment : String)</text><text fill="#000000" font-family="sans-serif" font-size="11" lengthAdjust="spacing" textLength="382" x="666" y="382.1084">+Rating(ratingId : String, score : float, comment : String, createdAt : Date)</text><text fill="#000000" font-family="sans-serif" font-size="11" lengthAdjust="spacing" textLength="115" x="666" y="397.0902">+getRatingId() : String</text><text fill="#000000" font-family="sans-serif" font-size="11" lengthAdjust="spacing" textLength="91" x="666" y="412.0721">+getScore() : float</text><text fill="#000000" font-family="sans-serif" font-size="11" lengthAdjust="spacing" textLength="149" x="666" y="427.054">+setScore(score : float) : void</text><text fill="#000000" font-family="sans-serif" font-size="11" lengthAdjust="spacing" textLength="121" x="666" y="442.0359">+getComment() : String</text><text fill="#000000" font-family="sans-serif" font-size="11" lengthAdjust="spacing" textLength="200" x="666" y="457.0178">+setComment(comment : String) : void</text><text fill="#000000" font-family="sans-serif" font-size="11" lengthAdjust="spacing" textLength="114" x="666" y="471.9997">+getCreatedAt() : Date</text><text fill="#000000" font-family="sans-serif" font-size="11" lengthAdjust="spacing" textLength="96" x="666" y="486.9816">+toString() : String</text><text fill="#000000" font-family="sans-serif" font-size="11" lengthAdjust="spacing" textLength="148" x="666" y="501.9635">+equals(o : Object) : boolean</text><text fill="#000000" font-family="sans-serif" font-size="11" lengthAdjust="spacing" textLength="87" x="666" y="516.9453">+hashCode() : int</text></g><!--class Cinema--><g id="elem_Cinema"><rect codeLine="106" fill="#F1F1F1" height="283.7102" id="Cinema" rx="2.5" ry="2.5" style="stroke:#181818;stroke-width:0.5;" width="402" x="2215" y="247.95"/><ellipse cx="2392.75" cy="261.95" fill="#ADD1B2" rx="9" ry="9" style="stroke:#181818;stroke-width:1.0;"/><path d="M2392.6094,266.0594 Q2391.4844,266.0594 2390.75,265.5906 Q2390.0156,265.1063 2389.6563,264.2313 Q2389.2969,263.3563 2389.2969,262.1844 Q2389.2969,260.8719 2389.7188,259.9344 Q2390.1406,258.9969 2390.9688,258.4969 Q2391.8125,257.9813 2393.0156,257.9813 Q2393.5938,257.9813 2394.0156,258.1063 Q2394.4531,258.2156 2394.9063,258.4344 L2394.375,259.7469 Q2393.9688,259.5438 2393.625,259.4656 Q2393.2813,259.3875 2392.9688,259.3875 Q2392.2031,259.3875 2391.75,259.7313 Q2391.2969,260.0594 2391.1094,260.6844 Q2390.9219,261.2938 2390.9219,262.1219 Q2390.9219,263.4188 2391.375,264.0438 Q2391.8438,264.6688 2392.875,264.6688 Q2393.2656,264.6688 2393.6563,264.575 Q2394.0625,264.4656 2394.6094,264.2156 L2394.6094,265.6531 Q2394.125,265.8563 2393.6094,265.95 Q2393.1094,266.0594 2392.6094,266.0594 Z " fill="#000000"/><text fill="#000000" font-family="sans-serif" font-size="11" lengthAdjust="spacing" textLength="39" x="2410.25" y="266.218">Cinema</text><line style="stroke:#181818;stroke-width:0.5;" x1="2216" x2="2616" y1="275.95" y2="275.95"/><text fill="#000000" font-family="sans-serif" font-size="11" lengthAdjust="spacing" textLength="72" x="2221" y="291.7089">-fsqId : String</text><text fill="#000000" font-family="sans-serif" font-size="11" lengthAdjust="spacing" textLength="74" x="2221" y="306.6908">-name : String</text><text fill="#000000" font-family="sans-serif" font-size="11" lengthAdjust="spacing" textLength="90" x="2221" y="321.6727">-latitude : double</text><text fill="#000000" font-family="sans-serif" font-size="11" lengthAdjust="spacing" textLength="101" x="2221" y="336.6546">-longitude : double</text><text fill="#000000" font-family="sans-serif" font-size="11" lengthAdjust="spacing" textLength="86" x="2221" y="351.6365">-address : String</text><text fill="#000000" font-family="sans-serif" font-size="11" lengthAdjust="spacing" textLength="106" x="2221" y="366.6184">-distanceMeters : int</text><line style="stroke:#181818;stroke-width:0.5;" x1="2216" x2="2616" y1="373.8413" y2="373.8413"/><text fill="#000000" font-family="sans-serif" font-size="11" lengthAdjust="spacing" textLength="390" x="2221" y="389.6002">+Cinema(fsqId : String, name : String, latitude : double, longitude : double)</text><text fill="#000000" font-family="sans-serif" font-size="11" lengthAdjust="spacing" textLength="99" x="2221" y="404.5821">+getFsqId() : String</text><text fill="#000000" font-family="sans-serif" font-size="11" lengthAdjust="spacing" textLength="100" x="2221" y="419.564">+getName() : String</text><text fill="#000000" font-family="sans-serif" font-size="11" lengthAdjust="spacing" textLength="118" x="2221" y="434.5459">+getLatitude() : double</text><text fill="#000000" font-family="sans-serif" font-size="11" lengthAdjust="spacing" textLength="129" x="2221" y="449.5278">+getLongitude() : double</text><text fill="#000000" font-family="sans-serif" font-size="11" lengthAdjust="spacing" textLength="112" x="2221" y="464.5097">+getAddress() : String</text><text fill="#000000" font-family="sans-serif" font-size="11" lengthAdjust="spacing" textLength="183" x="2221" y="479.4916">+setAddress(address : String) : void</text><text fill="#000000" font-family="sans-serif" font-size="11" lengthAdjust="spacing" textLength="132" x="2221" y="494.4735">+getDistanceMeters() : int</text><text fill="#000000" font-family="sans-serif" font-size="11" lengthAdjust="spacing" textLength="241" x="2221" y="509.4553">+setDistanceMeters(distanceMeters : int) : void</text><text fill="#000000" font-family="sans-serif" font-size="11" lengthAdjust="spacing" textLength="96" x="2221" y="524.4372">+toString() : String</text></g><!--class WatchProvider--><g id="elem_WatchProvider"><rect codeLine="125" fill="#F1F1F1" height="193.8189" id="WatchProvider" rx="2.5" ry="2.5" style="stroke:#181818;stroke-width:0.5;" width="457" x="2651.5" y="292.89"/><ellipse cx="2837.25" cy="306.89" fill="#ADD1B2" rx="9" ry="9" style="stroke:#181818;stroke-width:1.0;"/><path d="M2837.1094,310.9994 Q2835.9844,310.9994 2835.25,310.5306 Q2834.5156,310.0463 2834.1563,309.1713 Q2833.7969,308.2963 2833.7969,307.1244 Q2833.7969,305.8119 2834.2188,304.8744 Q2834.6406,303.9369 2835.4688,303.4369 Q2836.3125,302.9213 2837.5156,302.9213 Q2838.0938,302.9213 2838.5156,303.0463 Q2838.9531,303.1556 2839.4063,303.3744 L2838.875,304.6869 Q2838.4688,304.4838 2838.125,304.4056 Q2837.7813,304.3275 2837.4688,304.3275 Q2836.7031,304.3275 2836.25,304.6713 Q2835.7969,304.9994 2835.6094,305.6244 Q2835.4219,306.2338 2835.4219,307.0619 Q2835.4219,308.3588 2835.875,308.9838 Q2836.3438,309.6088 2837.375,309.6088 Q2837.7656,309.6088 2838.1563,309.515 Q2838.5625,309.4056 2839.1094,309.1556 L2839.1094,310.5931 Q2838.625,310.7963 2838.1094,310.89 Q2837.6094,310.9994 2837.1094,310.9994 Z " fill="#000000"/><text fill="#000000" font-family="sans-serif" font-size="11" lengthAdjust="spacing" textLength="78" x="2854.75" y="311.158">WatchProvider</text><line style="stroke:#181818;stroke-width:0.5;" x1="2652.5" x2="3107.5" y1="320.89" y2="320.89"/><text fill="#000000" font-family="sans-serif" font-size="11" lengthAdjust="spacing" textLength="84" x="2657.5" y="336.6489">-providerId : int</text><text fill="#000000" font-family="sans-serif" font-size="11" lengthAdjust="spacing" textLength="74" x="2657.5" y="351.6308">-name : String</text><text fill="#000000" font-family="sans-serif" font-size="11" lengthAdjust="spacing" textLength="93" x="2657.5" y="366.6127">-logoPath : String</text><text fill="#000000" font-family="sans-serif" font-size="11" lengthAdjust="spacing" textLength="102" x="2657.5" y="381.5946">-accessType : String</text><line style="stroke:#181818;stroke-width:0.5;" x1="2652.5" x2="3107.5" y1="388.8176" y2="388.8176"/><text fill="#000000" font-family="sans-serif" font-size="11" lengthAdjust="spacing" textLength="445" x="2657.5" y="404.5765">+WatchProvider(providerId : int, name : String, logoPath : String, accessType : String)</text><text fill="#000000" font-family="sans-serif" font-size="11" lengthAdjust="spacing" textLength="109" x="2657.5" y="419.5584">+getProviderId() : int</text><text fill="#000000" font-family="sans-serif" font-size="11" lengthAdjust="spacing" textLength="100" x="2657.5" y="434.5402">+getName() : String</text><text fill="#000000" font-family="sans-serif" font-size="11" lengthAdjust="spacing" textLength="121" x="2657.5" y="449.5221">+getLogoPath() : String</text><text fill="#000000" font-family="sans-serif" font-size="11" lengthAdjust="spacing" textLength="128" x="2657.5" y="464.504">+getAccessType() : String</text><text fill="#000000" font-family="sans-serif" font-size="11" lengthAdjust="spacing" textLength="96" x="2657.5" y="479.4859">+toString() : String</text></g><!--class UserPreferences--><g id="elem_UserPreferences"><rect codeLine="138" fill="#F1F1F1" height="178.837" id="UserPreferences" rx="2.5" ry="2.5" style="stroke:#181818;stroke-width:0.5;" width="343" x="2244.5" y="652.6"/><ellipse cx="2369.25" cy="666.6" fill="#ADD1B2" rx="9" ry="9" style="stroke:#181818;stroke-width:1.0;"/><path d="M2369.1094,670.7094 Q2367.9844,670.7094 2367.25,670.2406 Q2366.5156,669.7563 2366.1563,668.8813 Q2365.7969,668.0063 2365.7969,666.8344 Q2365.7969,665.5219 2366.2188,664.5844 Q2366.6406,663.6469 2367.4688,663.1469 Q2368.3125,662.6313 2369.5156,662.6313 Q2370.0938,662.6313 2370.5156,662.7563 Q2370.9531,662.8656 2371.4063,663.0844 L2370.875,664.3969 Q2370.4688,664.1938 2370.125,664.1156 Q2369.7813,664.0375 2369.4688,664.0375 Q2368.7031,664.0375 2368.25,664.3813 Q2367.7969,664.7094 2367.6094,665.3344 Q2367.4219,665.9438 2367.4219,666.7719 Q2367.4219,668.0688 2367.875,668.6938 Q2368.3438,669.3188 2369.375,669.3188 Q2369.7656,669.3188 2370.1563,669.225 Q2370.5625,669.1156 2371.1094,668.8656 L2371.1094,670.3031 Q2370.625,670.5063 2370.1094,670.6 Q2369.6094,670.7094 2369.1094,670.7094 Z " fill="#000000"/><text fill="#000000" font-family="sans-serif" font-size="11" lengthAdjust="spacing" textLength="86" x="2386.75" y="670.868">UserPreferences</text><line style="stroke:#181818;stroke-width:0.5;" x1="2245.5" x2="2586.5" y1="680.6" y2="680.6"/><text fill="#000000" font-family="sans-serif" font-size="11" lengthAdjust="spacing" textLength="116" x="2250.5" y="696.3589">-cinemaRadiusKm : int</text><text fill="#000000" font-family="sans-serif" font-size="11" lengthAdjust="spacing" textLength="119" x="2250.5" y="711.3408">-defaultRegion : String</text><line style="stroke:#181818;stroke-width:0.5;" x1="2245.5" x2="2586.5" y1="718.5638" y2="718.5638"/><text fill="#000000" font-family="sans-serif" font-size="11" lengthAdjust="spacing" textLength="98" x="2250.5" y="734.3227">+UserPreferences()</text><text fill="#000000" font-family="sans-serif" font-size="11" lengthAdjust="spacing" textLength="331" x="2250.5" y="749.3046">+UserPreferences(cinemaRadiusKm : int, defaultRegion : String)</text><text fill="#000000" font-family="sans-serif" font-size="11" lengthAdjust="spacing" textLength="143" x="2250.5" y="764.2865">+getCinemaRadiusKm() : int</text><text fill="#000000" font-family="sans-serif" font-size="11" lengthAdjust="spacing" textLength="262" x="2250.5" y="779.2684">+setCinemaRadiusKm(cinemaRadiusKm : int) : void</text><text fill="#000000" font-family="sans-serif" font-size="11" lengthAdjust="spacing" textLength="145" x="2250.5" y="794.2502">+getDefaultRegion() : String</text><text fill="#000000" font-family="sans-serif" font-size="11" lengthAdjust="spacing" textLength="249" x="2250.5" y="809.2321">+setDefaultRegion(defaultRegion : String) : void</text><text fill="#000000" font-family="sans-serif" font-size="11" lengthAdjust="spacing" textLength="96" x="2250.5" y="824.214">+toString() : String</text></g><!--reverse link Exception to InvalidDataException--><g id="link_Exception_InvalidDataException"><path codeLine="17" d="M361.1451,428.744 C386.0651,487.334 448.6,634.3 479.22,706.27 " fill="none" id="Exception-backto-InvalidDataException" style="stroke:#181818;stroke-width:1.0;"/><polygon fill="none" points="354.1,412.18,355.6238,431.0924,366.6665,426.3956,354.1,412.18" style="stroke:#181818;stroke-width:1.0;"/></g><!--reverse link Exception to InvalidRatingException--><g id="link_Exception_InvalidRatingException"><path codeLine="18" d="M332.679,429.3252 C313.949,487.9152 267.13,634.3 244.11,706.27 " fill="none" id="Exception-backto-InvalidRatingException" style="stroke:#181818;stroke-width:1.0;"/><polygon fill="none" points="338.16,412.18,326.964,427.4982,338.3941,431.1522,338.16,412.18" style="stroke:#181818;stroke-width:1.0;"/></g><!--link User to InvalidDataException--><g id="link_User_InvalidDataException"><path codeLine="151" d="M1153.63,524.65 C1127.8,544.61 1099.78,563.02 1071,576.6 C896.68,658.88 824.78,585.71 644,652.6 C608.14,665.87 576.104,684.3246 547.804,702.9246 " fill="none" id="User-to-InvalidDataException" style="stroke:#181818;stroke-width:1.0;stroke-dasharray:7.0,7.0;"/><polygon fill="#181818" points="542.79,706.22,552.5079,704.6195,546.9683,703.4738,548.1141,697.9342,542.79,706.22" style="stroke:#181818;stroke-width:1.0;"/><text fill="#000000" font-family="sans-serif" font-size="11" lengthAdjust="spacing" textLength="37" x="986.59" y="619.3589">throws</text></g><!--link MovieList to InvalidDataException--><g id="link_MovieList_InvalidDataException"><path codeLine="152" d="M1598.66,502.16 C1572.59,531.15 1541.12,559.12 1506,576.6 C1333.85,662.3 827.44,594.89 644,652.6 C606.66,664.35 573.6666,683.4588 545.2866,702.8188 " fill="none" id="MovieList-to-InvalidDataException" style="stroke:#181818;stroke-width:1.0;stroke-dasharray:7.0,7.0;"/><polygon fill="#181818" points="540.33,706.2,550.019,704.4325,544.4605,703.3823,545.5107,697.8238,540.33,706.2" style="stroke:#181818;stroke-width:1.0;"/><text fill="#000000" font-family="sans-serif" font-size="11" lengthAdjust="spacing" textLength="37" x="1401.39" y="619.3589">throws</text></g><!--link SavedMovie to InvalidDataException--><g id="link_SavedMovie_InvalidDataException"><path codeLine="153" d="M1865.24,567.02 C1859.59,570.46 1853.84,573.67 1848,576.6 C1687.64,657.01 1625.88,609.02 1447,622.6 C1268.94,636.12 815.37,602.4 644,652.6 C606.14,663.69 572.8335,683.0353 544.4435,702.6853 " fill="none" id="SavedMovie-to-InvalidDataException" style="stroke:#181818;stroke-width:1.0;stroke-dasharray:7.0,7.0;"/><polygon fill="#181818" points="539.51,706.1,549.1868,704.2669,543.6213,703.2544,544.6338,697.6889,539.51,706.1" style="stroke:#181818;stroke-width:1.0;"/><text fill="#000000" font-family="sans-serif" font-size="11" lengthAdjust="spacing" textLength="37" x="1770.73" y="619.3589">throws</text></g><!--link Rating to InvalidRatingException--><g id="link_Rating_InvalidRatingException"><path codeLine="154" d="M703.25,524.46 C676.6,543.71 648.32,561.94 620,576.6 C606.92,583.38 379.33,646.35 366,652.6 C335,667.15 307.827,684.7311 282.957,702.6611 " fill="none" id="Rating-to-InvalidRatingException" style="stroke:#181818;stroke-width:1.0;stroke-dasharray:7.0,7.0;"/><polygon fill="#181818" points="278.09,706.17,287.7298,704.1514,282.1458,703.2459,283.0513,697.662,278.09,706.17" style="stroke:#181818;stroke-width:1.0;"/><text fill="#000000" font-family="sans-serif" font-size="11" lengthAdjust="spacing" textLength="37" x="515.67" y="619.3589">throws</text></g><!--link SavedMovie to WatchStatus--><g id="link_SavedMovie_WatchStatus"><path codeLine="156" d="M2023,576.94 C2023,618.47 2023,653.18 2023,683.66 " fill="none" id="SavedMovie-to-WatchStatus" style="stroke:#181818;stroke-width:1.0;"/><polygon fill="#181818" points="2023,689.66,2027,680.66,2023,684.66,2019,680.66,2023,689.66" style="stroke:#181818;stroke-width:1.0;"/></g><!--SRC=[pLXDRziu4BtxLmWvoLZPs5w38e3X95jZqyImtHPxAcXnR74ZaIf9EVlH_lUIbAo8NqcTtMtN5yEScJUFCuz3oUAUq1fnL2K5elY14oc19ZjK2XY9tbOnolA2imeyaoWGPW-4xZqBXXrgIddDgBn5AlBi3PG7a2H7MJBZ19LP8X0L4m6SxCx2WMlo5oIlNWsCUOc4c4d9oRQHiCWPDJu_ZqOrok_HNkMfvPG8gATOYEemhJdx7NA9EIDu2d_aK4l2g3XB_XubwcFmaWKze9BWIoJHrT4bUVqwBo2_1vpqOHSNNPZ-_1GCIoiGGlCuJzQA9TsFJS2NaPzkXQIolo2X4_XqoW7-vyaaoFa9FoVLwCkt5RfY64fTOmCDjAcI3qZcnLeYsOZ1dfOtizkFcxkF7sQR-Pj-rVnQtFvYBrnTzh-lP-_lLelDbL_RTqfF0_n9qgY51UvhCx1GBSl0EbI8b243XpqHaYDT2LL07Qo_1WtIsLCdOsOdoXpyyJyBpsAiXhXxaEyCQZhszsNC-eY6ZQ8pMYoqvq4rsWQvqioYAAtLsNmGP-Nio40wbPQiHGYdWq-D6aSfKxQxhPQbzjeoLWAY0xS2YMAkf6f029M-dDwo0u4RnSRILAaMJjDKpa7nnpFfxwHFaJgmJkV7BuZ9lCIEB6vC-7yhY_cHmW_iuneT09kgMOrKli0fAiFDb1NU6iiHibiciWmskMP2mIsHBCBJGx4My1iWxa6o0t35xI4K9zgPUJwSe8EzF-ui3UmcipQHETmTCIpw-AWWDWRDglEZJMD78vTzSQA26hW4IXcR5NrL0wo4xU2r88nvrtKZIhHtyFeM1coRPk32JHIzJwZR0T3lT6pQwzywCjmiXG-Co1dNwjgL30tbdREg0YfF78njyjHBcDbvCWz-_6-0F3iwLnraLF5hdS1OxNgqxJP6YqDaUhQyebeyshqY_6zdyPnGzHHWYMedFfrsdvQg-BB1sePPiorXQ6Dq7pKYZBbwN0vXOdKN8fh3Mr2ZHtYpfAMTsbIz-zOZbWNuE4gwrf0lk8Fr_TsbCmxEPbk7O_AenwojI5HWHxjRkR30BgqYXaUounEg-maZpzAMcPfBhgv3xBm7rDrYu4AFYepjMUmsHtckYh7viuPGsImQgPlQ5usRA0lXEwfPzgZXw_XftNGPemwpFd_OvPkweLywbXnsm47rLrZzoCrnMY5C6l5hvVMa-nT0lmgeLz800GSx7JzX2-NA8YcSAi-jqB2U7PzGjiXX6JA87a3RAyBwbFEYUcHUawVJY_1V7-U9B3Xx4AF7rv_dVGUFsCyxTmyM0qVttv3UTGWycLnOJr1V0G00]--></g></svg>